<svg width="50" height="50" viewBox="0 0 50 50" fill="none" xmlns="http://www.w3.org/2000/svg">
<path fill-rule="evenodd" clip-rule="evenodd" d="M15.625 10.1563C15.625 10.7779 15.3781 11.374 14.9385 11.8135C14.499 12.2531 13.9029 12.5 13.2813 12.5C12.6597 12.5 12.0635 12.2531 11.624 11.8135C11.1844 11.374 10.9375 10.7779 10.9375 10.1563C10.9375 9.53466 11.1844 8.93852 11.624 8.49898C12.0635 8.05944 12.6597 7.81251 13.2813 7.81251C13.9029 7.81251 14.499 8.05944 14.9385 8.49898C15.3781 8.93852 15.625 9.53466 15.625 10.1563V10.1563ZM15.625 16.7875C17.1888 16.2346 18.5068 15.1467 19.346 13.7161C20.1853 12.2854 20.4917 10.6041 20.2113 8.96939C19.9308 7.33463 19.0814 5.85166 17.8133 4.78258C16.5452 3.7135 14.9399 3.12714 13.2813 3.12714C11.6226 3.12714 10.0174 3.7135 8.74925 4.78258C7.48112 5.85166 6.63175 7.33463 6.35127 8.96939C6.0708 10.6041 6.37726 12.2854 7.2165 13.7161C8.05575 15.1467 9.37373 16.2346 10.9375 16.7875V19.5313C10.9375 21.3961 11.6783 23.1845 12.9969 24.5031C14.3155 25.8217 16.104 26.5625 17.9688 26.5625H22.6563V33.2125C21.0916 33.7654 19.7728 34.8537 18.933 36.285C18.0931 37.7162 17.7864 39.3983 18.0669 41.0339C18.3473 42.6695 19.197 44.1533 20.4658 45.223C21.7345 46.2926 23.3405 46.8793 25 46.8793C26.6595 46.8793 28.2655 46.2926 29.5343 45.223C30.803 44.1533 31.6527 42.6695 31.9332 41.0339C32.2137 39.3983 31.9069 37.7162 31.0671 36.285C30.2272 34.8537 28.9084 33.7654 27.3438 33.2125V26.5625H32.0313C33.8961 26.5625 35.6845 25.8217 37.0031 24.5031C38.3217 23.1845 39.0625 21.3961 39.0625 19.5313V16.7875C40.6263 16.2346 41.9443 15.1467 42.7835 13.7161C43.6228 12.2854 43.9292 10.6041 43.6488 8.96939C43.3683 7.33463 42.5189 5.85166 41.2508 4.78258C39.9827 3.7135 38.3774 3.12714 36.7188 3.12714C35.0601 3.12714 33.4549 3.7135 32.1867 4.78258C30.9186 5.85166 30.0693 7.33463 29.7888 8.96939C29.5083 10.6041 29.8148 12.2854 30.654 13.7161C31.4932 15.1467 32.8112 16.2346 34.375 16.7875V19.5313C34.375 20.1529 34.1281 20.749 33.6885 21.1885C33.249 21.6281 32.6529 21.875 32.0313 21.875H17.9688C17.3472 21.875 16.751 21.6281 16.3115 21.1885C15.8719 20.749 15.625 20.1529 15.625 19.5313V16.7875ZM27.3438 39.8438C27.3438 40.4654 27.0968 41.0615 26.6573 41.501C26.2178 41.9406 25.6216 42.1875 25 42.1875C24.3784 42.1875 23.7823 41.9406 23.3427 41.501C22.9032 41.0615 22.6563 40.4654 22.6563 39.8438C22.6563 39.2222 22.9032 38.626 23.3427 38.1865C23.7823 37.7469 24.3784 37.5 25 37.5C25.6216 37.5 26.2178 37.7469 26.6573 38.1865C27.0968 38.626 27.3438 39.2222 27.3438 39.8438ZM36.7188 12.5C37.3404 12.5 37.9365 12.2531 38.376 11.8135C38.8156 11.374 39.0625 10.7779 39.0625 10.1563C39.0625 9.53466 38.8156 8.93852 38.376 8.49898C37.9365 8.05944 37.3404 7.81251 36.7188 7.81251C36.0972 7.81251 35.501 8.05944 35.0615 8.49898C34.6219 8.93852 34.375 9.53466 34.375 10.1563C34.375 10.7779 34.6219 11.374 35.0615 11.8135C35.501 12.2531 36.0972 12.5 36.7188 12.5Z" fill="#6366F1"/>
</svg>
