<svg width="50" height="50" viewBox="0 0 50 50" fill="none" xmlns="http://www.w3.org/2000/svg">
<path fill-rule="evenodd" clip-rule="evenodd" d="M25 0.78125C25.4375 0.780967 25.8664 0.903168 26.2381 1.13402C26.6098 1.36488 26.9094 1.69516 27.1031 2.0875L32.9844 14.0094L46.1406 15.9219C46.5733 15.9847 46.9798 16.1673 47.3141 16.4491C47.6485 16.7309 47.8973 17.1006 48.0326 17.5164C48.1678 17.9322 48.1841 18.3775 48.0794 18.802C47.9748 19.2266 47.7536 19.6134 47.4406 19.9188L37.9219 29.2L40.1687 42.3C40.2428 42.731 40.1949 43.1742 40.0302 43.5794C39.8656 43.9846 39.5908 44.3356 39.2371 44.5928C38.8833 44.85 38.4647 45.003 38.0285 45.0347C37.5923 45.0663 37.1559 44.9753 36.7687 44.7719L25 38.5844L13.2312 44.7719C12.8443 44.975 12.4083 45.066 11.9725 45.0344C11.5366 45.0028 11.1182 44.8501 10.7646 44.5933C10.411 44.3365 10.1362 43.986 9.97129 43.5813C9.80635 43.1767 9.75785 42.7339 9.83125 42.3031L12.0812 29.1969L2.55625 19.9188C2.24239 19.6135 2.02031 19.2265 1.91516 18.8015C1.81001 18.3765 1.826 17.9305 1.96132 17.5141C2.09664 17.0978 2.34588 16.7276 2.68079 16.4457C3.01571 16.1637 3.42291 15.9812 3.85625 15.9187L17.0125 14.0094L22.8969 2.0875C23.0906 1.69516 23.3902 1.36488 23.7619 1.13402C24.1336 0.903168 24.5625 0.780967 25 0.78125V0.78125ZM25 8.42188L20.6719 17.1875C20.5038 17.5278 20.2556 17.8222 19.9486 18.0454C19.6416 18.2686 19.2849 18.4139 18.9094 18.4687L9.23125 19.875L16.2312 26.7C16.5036 26.9652 16.7074 27.2927 16.8249 27.6542C16.9425 28.0156 16.9704 28.4003 16.9062 28.775L15.2562 38.4125L23.9094 33.8625C24.2457 33.6857 24.62 33.5933 25 33.5933C25.38 33.5933 25.7543 33.6857 26.0906 33.8625L34.7469 38.4125L33.0906 28.775C33.0264 28.4003 33.0543 28.0156 33.1719 27.6542C33.2895 27.2927 33.4933 26.9652 33.7656 26.7L40.7656 19.8781L31.0906 18.4719C30.7151 18.417 30.3584 18.2717 30.0514 18.0485C29.7444 17.8253 29.4962 17.5309 29.3281 17.1906L25 8.41875V8.42188Z" fill="#6366F1"/>
</svg>
