<svg width="78" height="82" viewBox="0 0 78 82" fill="none" xmlns="http://www.w3.org/2000/svg">
<path d="M34.9199 1.09999C28.1999 2.19999 24.0799 5.39999 22.2199 10.96C21.6599 12.6 21.1999 15.66 21.1999 17.7C21.1999 19.92 21.6999 24.04 22.3199 26.76L22.8399 29.04L22.3399 29.58C21.2999 30.7 21.0599 32.34 21.5799 34.76C21.9599 36.52 22.8799 38 23.9199 38.5C24.6999 38.88 24.7799 38.98 24.9999 40.08C25.5399 42.82 27.0799 46.14 28.6199 47.88L29.4399 48.82L29.3799 52.96C29.2999 57.04 29.2799 57.12 28.7599 58.04C27.3799 60.38 24.6799 62.04 17.8199 64.78C10.0199 67.92 6.85994 69.84 4.35994 72.96C2.51994 75.28 1.41994 77.9 1.07994 80.84L0.939941 82H38.9999H77.0399L76.8999 80.94C76.2599 75.92 73.8999 72.18 69.4999 69.26C66.9599 67.58 65.1399 66.72 59.4999 64.46C53.9999 62.28 51.4399 60.82 50.0399 59.04C48.8599 57.56 48.7799 57.14 48.7399 52.72L48.6999 48.7L49.4399 47.92C50.7599 46.52 52.4799 42.76 52.9999 40.06C53.2199 38.96 53.2999 38.84 53.9199 38.62C55.1199 38.18 55.9999 36.68 56.5199 34.2C56.9199 32.14 56.6999 30.76 55.7799 29.7L55.1799 29.02L55.5799 27.66C57.3599 21.7 57.6599 15.54 56.3999 11.44C55.2799 7.79999 52.7199 5.33999 49.2599 4.57999C48.3599 4.37999 47.9599 4.13999 47.2199 3.39999C45.4799 1.67999 43.3799 0.999994 39.3999 0.879994C37.6599 0.839994 36.0599 0.919994 34.9199 1.09999Z" fill="#6366F1"/>
</svg>
