<svg width="50" height="50" viewBox="0 0 50 50" fill="none" xmlns="http://www.w3.org/2000/svg">
<path fill-rule="evenodd" clip-rule="evenodd" d="M5.24687 24.7875C6.53437 22.8469 9.12812 19.3188 12.6406 16.2969C16.1719 13.2563 20.3969 10.9375 25 10.9375C29.6031 10.9375 33.825 13.2563 37.3594 16.2969C40.8719 19.3188 43.4656 22.8469 44.7531 24.7875C44.7965 24.8499 44.8198 24.924 44.8198 25C44.8198 25.076 44.7965 25.1501 44.7531 25.2125C43.4656 27.1531 40.8719 30.6812 37.3594 33.7031C33.8281 36.7437 29.6031 39.0625 25 39.0625C20.3969 39.0625 16.175 36.7437 12.6406 33.7031C9.125 30.6812 6.53125 27.1562 5.24687 25.2125C5.20345 25.1501 5.18018 25.076 5.18018 25C5.18018 24.924 5.20345 24.8499 5.24687 24.7875ZM25 6.25C18.8094 6.25 13.5312 9.35 9.58437 12.7438C5.61562 16.1531 2.75 20.0719 1.34375 22.1875C0.788438 23.0192 0.492065 23.9968 0.492065 24.9969C0.492065 25.9969 0.788438 26.9745 1.34375 27.8062C2.75 29.925 5.61562 33.8437 9.58437 37.2562C13.5281 40.65 18.8094 43.75 25 43.75C31.1906 43.75 36.4687 40.65 40.4156 37.2562C44.3844 33.8469 47.25 29.9281 48.6562 27.8094C49.2116 26.9777 49.5079 26.0001 49.5079 25C49.5079 23.9999 49.2116 23.0223 48.6562 22.1906C47.25 20.0719 44.3844 16.1531 40.4156 12.7438C36.4719 9.35 31.1906 6.25 25 6.25ZM25 31.25C26.6576 31.25 28.2473 30.5915 29.4194 29.4194C30.5915 28.2473 31.25 26.6576 31.25 25C31.25 23.3424 30.5915 21.7527 29.4194 20.5806C28.2473 19.4085 26.6576 18.75 25 18.75C23.3424 18.75 21.7527 19.4085 20.5806 20.5806C19.4085 21.7527 18.75 23.3424 18.75 25C18.75 26.6576 19.4085 28.2473 20.5806 29.4194C21.7527 30.5915 23.3424 31.25 25 31.25V31.25Z" fill="#6366F1"/>
</svg>
