<svg width="150" height="150" viewBox="0 0 150 150" fill="none" xmlns="http://www.w3.org/2000/svg">
<path d="M53.373 140.508C55.506 139.59 57 137.469 57 135V118.8C57 118.209 57.048 117.594 57.123 116.97C57.081 116.982 57.042 116.991 57 117C57 117 48 117 46.2 117C41.7 117 37.8 115.2 36 111.6C33.9 107.7 33 101.1 27.6 97.5C26.7 96.9 27.3 96 29.1 96C30.9 96.3 34.8 98.7 37.2 102C39.9 105.3 42.6 108 47.4 108C54.861 108 58.86 107.625 61.266 106.335C64.068 102.168 67.947 99 72 99V98.925C54.996 98.379 44.133 92.727 39.075 84C28.08 84.126 18.507 85.215 13.044 86.121C12.87 85.14 12.72 84.153 12.591 83.16C17.982 82.272 27.12 81.219 37.626 81.018C37.29 80.19 36.999 79.341 36.753 78.471C26.22 77.937 17.13 78.354 12.192 78.762C12.132 77.766 12.051 76.773 12.039 75.765C16.986 75.36 25.83 74.955 36.093 75.432C35.856 73.932 35.703 72.399 35.703 70.803C35.703 65.703 37.503 60.303 40.803 55.803C39.303 50.703 37.203 39.903 41.403 36.003C49.503 36.003 55.203 39.903 57.903 42.303C63 40.2 68.7 39 75 39C81.3 39 87 40.2 91.8 42.3C94.5 39.9 100.2 36 108.3 36C112.8 40.2 110.4 51 108.9 55.8C112.2 60.3 114 65.4 113.7 70.8C113.7 72.252 113.565 73.653 113.37 75.027C123.867 74.511 132.951 74.925 137.982 75.333C137.976 76.344 137.883 77.331 137.829 78.33C132.816 77.916 123.504 77.49 112.752 78.063C112.485 79.071 112.161 80.052 111.777 81.003C122.415 81.141 131.772 82.17 137.421 83.07C137.292 84.066 137.142 85.053 136.968 86.031C131.232 85.113 121.455 84.039 110.331 83.985C105.336 92.619 94.671 98.25 78 98.907V99C85.8 99 93 110.7 93 118.8V135C93 137.469 94.494 139.59 96.627 140.508C124.11 131.412 144 105.492 144 75C144 36.954 113.049 6 75 6C36.951 6 6 36.954 6 75C6 105.492 25.89 131.412 53.373 140.508Z" fill="#6366F1"/>
</svg>
